<svg width="657" height="387" viewBox="0 0 657 387" fill="none" xmlns="http://www.w3.org/2000/svg">
<rect x="25.5818" y="292.667" width="15.499" height="15.499" transform="rotate(-108.494 25.5818 292.667)" fill="#FE9426"/>
<rect x="206.035" y="191.923" width="15.499" height="15.499" transform="rotate(-122.918 206.035 191.923)" fill="white"/>
<rect x="123.992" y="287.542" width="15.499" height="15.499" transform="rotate(-75.68 123.992 287.542)" fill="white"/>
<rect x="293.073" y="181.122" width="15.499" height="15.499" transform="rotate(-90.1036 293.073 181.122)" fill="#0F59FA"/>
<rect y="89.9297" width="15.499" height="15.499" transform="rotate(-75.68 0 89.9297)" fill="#FE9426"/>
<rect x="74.9392" y="43.3906" width="15.499" height="15.499" transform="rotate(-90.1036 74.9392 43.3906)" fill="#0F59FA"/>
<rect x="192.196" y="367.578" width="15.499" height="15.499" transform="rotate(-108.494 192.196 367.578)" fill="#0F59FA"/>
<rect x="373.267" y="228.531" width="15.499" height="15.499" transform="rotate(-67.1685 373.267 228.531)" fill="#FE9426"/>
<rect x="313.237" y="363.703" width="15.499" height="15.499" transform="rotate(-122.918 313.237 363.703)" fill="white"/>
<rect x="453.248" y="383.808" width="15.499" height="15.499" transform="rotate(-81.592 453.248 383.808)" fill="#FE9426"/>
<rect x="586.378" y="15.0176" width="15.499" height="15.499" transform="rotate(-75.68 586.378 15.0176)" fill="#FE9426"/>
<rect x="474.973" y="270.53" width="15.499" height="15.499" transform="rotate(-34.3541 474.973 270.53)" fill="#0F59FA"/>
<rect x="443.041" y="76.9717" width="15.499" height="15.499" transform="rotate(-90.1036 443.041 76.9717)" fill="white"/>
<rect x="601.127" y="286.695" width="15.499" height="15.499" transform="rotate(-48.7776 601.127 286.695)" fill="white"/>
<rect x="635.458" y="372.865" width="15.499" height="15.499" transform="rotate(-34.3541 635.458 372.865)" fill="#0F59FA"/>
<rect x="311.14" y="57.8804" width="15.499" height="15.499" transform="rotate(-90.1036 311.14 57.8804)" fill="white"/>
<rect x="595.391" y="94.4834" width="15.499" height="15.499" transform="rotate(-48.7776 595.391 94.4834)" fill="#FE9426"/>
</svg>
