<svg width="36" height="33" fill="none" xmlns="http://www.w3.org/2000/svg"><path fill-rule="evenodd" clip-rule="evenodd" d="M3.507 22.503c2.434 5.706 8.096 9.705 14.691 9.705 6.596 0 12.257-3.999 14.692-9.705h-1.72c-2.329 4.817-7.262 8.14-12.972 8.14S7.555 27.32 5.226 22.503h-1.72Zm1.048-11.878a15.931 15.931 0 0 0-1.023 5.636h1.566c0-2 .407-3.905 1.144-5.636H4.555Zm28.2 0a14.355 14.355 0 0 1 1.143 5.636h1.566a15.93 15.93 0 0 0-1.023-5.636h-1.687Z" fill="#fff"/><path fill-rule="evenodd" clip-rule="evenodd" d="M32.628 10.706C30.351 4.67 24.52.376 17.686.376S5.02 4.669 2.743 10.706H4.43c2.193-5.152 7.302-8.765 13.256-8.765 5.953 0 11.063 3.613 13.256 8.765h1.686ZM.771 16.145v-.001h1.566c0 2.244.513 4.368 1.428 6.261h-1.72a15.914 15.914 0 0 1-1.274-6.26Zm30.657 6.26a15.913 15.913 0 0 0 1.275-6.26v-.001h-1.566c0 2.244-.513 4.368-1.428 6.261h1.72Z" fill="#fff"/></svg>