<svg width="273" height="202" fill="none" xmlns="http://www.w3.org/2000/svg"><rect x=".713" y="63.359" width="243.56" height="143.043" rx="7.732" transform="rotate(-15 .713 63.359)" fill="url(#a)"/><path d="M28.558 88.403c-.48.129-.923.108-1.33-.063-.408-.172-.768-.484-1.08-.935-.312-.453-.563-1.034-.753-1.743-.189-.704-.26-1.33-.216-1.876.046-.549.203-1 .47-1.354.268-.356.64-.598 1.115-.725s.917-.104 1.325.071c.41.172.772.485 1.084.938.314.45.565 1.028.754 1.732.19.709.263 1.337.219 1.886-.045.546-.2.996-.468 1.35-.267.35-.64.59-1.12.72Zm-.188-.7c.476-.127.784-.455.924-.984.14-.529.097-1.218-.13-2.066-.152-.565-.341-1.03-.569-1.394-.225-.364-.477-.62-.758-.768a1.178 1.178 0 0 0-.889-.097c-.471.127-.777.458-.918.993-.14.534-.098 1.224.129 2.07.151.565.339 1.029.564 1.392.224.362.475.617.753.763a1.2 1.2 0 0 0 .895.091Zm2.903-5.362 1.707 1.685.635-2.313.866-.232-.924 2.868 2.234 2.02-.866.233-1.68-1.583-.662 2.21-.866.232.898-2.86-2.208-2.028.866-.232Zm5.959 3.643-.828.222.647-7.16.815-.218 4.14 5.877-.828.221-3.418-4.965-.05.014-.478 6.009Zm-.377-2.628 3.335-.894.188.7-3.336.894-.187-.7Zm6.166 1.077-1.747-6.519 2.28-.61c.453-.122.849-.144 1.186-.066a1.6 1.6 0 0 1 .826.45c.215.223.364.493.45.812.075.28.087.524.036.734-.049.208-.14.387-.272.537a1.83 1.83 0 0 1-.456.374l.017.064c.203-.041.422-.025.658.048.236.074.453.211.653.412.2.202.345.474.437.818.088.327.092.64.014.941-.08.3-.258.57-.538.81-.28.238-.675.426-1.189.564l-2.355.63Zm.602-.912 1.565-.42c.516-.138.855-.336 1.018-.593a.993.993 0 0 0 .132-.82c-.06-.22-.17-.41-.333-.566a1.264 1.264 0 0 0-.601-.323 1.56 1.56 0 0 0-.785.026l-1.604.43.608 2.266Zm-.792-2.954 1.464-.392c.238-.064.44-.168.605-.312.169-.145.286-.318.353-.518.07-.2.073-.415.012-.644a1.026 1.026 0 0 0-.495-.649c-.253-.148-.596-.164-1.03-.048l-1.489.4.58 2.163Zm6.209-4.829c.268-.07.549-.09.843-.062.294.028.582.128.865.3.282.17.543.436.783.797.24.36.44.84.6 1.439.156.579.238 1.108.249 1.588.011.476-.044.896-.168 1.259a2.162 2.162 0 0 1-.557.9 2.092 2.092 0 0 1-.923.503c-.364.097-.71.113-1.035.045a1.986 1.986 0 0 1-.863-.42 2.193 2.193 0 0 1-.59-.814l.777-.208c.15.28.355.49.615.63.262.136.565.159.909.067.503-.135.84-.461 1.014-.978.175-.518.155-1.178-.06-1.98l-.051.014c-.071.21-.171.402-.3.575a1.93 1.93 0 0 1-1.072.72c-.373.1-.74.1-1.102-.001a2.175 2.175 0 0 1-.95-.567 2.317 2.317 0 0 1-.578-1.047 2.351 2.351 0 0 1-.026-1.166 2.14 2.14 0 0 1 .545-.999c.273-.285.632-.483 1.075-.595Zm.188.7c-.268.072-.49.203-.67.394a1.493 1.493 0 0 0-.362.67 1.56 1.56 0 0 0 .014.792c.073.271.199.503.377.694.18.188.392.32.635.396.245.073.5.074.768.002a1.4 1.4 0 0 0 .532-.269 1.51 1.51 0 0 0 .367-.45c.094-.175.155-.36.182-.556a1.509 1.509 0 0 0-.414-1.253 1.517 1.517 0 0 0-.648-.407 1.347 1.347 0 0 0-.781-.013Zm5.446 4.927a.57.57 0 0 1-.45-.06.57.57 0 0 1-.276-.36.57.57 0 0 1 .06-.45.571.571 0 0 1 .36-.276.57.57 0 0 1 .449.06.571.571 0 0 1 .277.36.616.616 0 0 1-.153.573.565.565 0 0 1-.267.153Zm2.468-.662a.571.571 0 0 1-.449-.06.57.57 0 0 1-.277-.36.57.57 0 0 1 .06-.448.57.57 0 0 1 .36-.277.57.57 0 0 1 .449.06.57.57 0 0 1 .277.359.614.614 0 0 1-.154.573.565.565 0 0 1-.266.153Zm2.468-.661a.57.57 0 0 1-.449-.06.571.571 0 0 1-.277-.36.571.571 0 0 1 .06-.449.57.57 0 0 1 .36-.277.57.57 0 0 1 .449.06.57.57 0 0 1 .277.36.616.616 0 0 1-.153.573.564.564 0 0 1-.267.153Zm3.92-.996c-.457.123-.881.12-1.27-.007a2.191 2.191 0 0 1-1.003-.69 3.137 3.137 0 0 1-.617-1.23c-.133-.497-.159-.96-.078-1.388a2.24 2.24 0 0 1 .53-1.1c.273-.306.63-.517 1.072-.636a2.27 2.27 0 0 1 .98-.058c.31.054.584.171.822.353.237.182.418.42.542.715l-.75.2a1.206 1.206 0 0 0-.541-.489c-.242-.121-.529-.138-.86-.05a1.367 1.367 0 0 0-.708.436c-.178.21-.292.468-.341.777-.048.306-.022.644.077 1.013a2.6 2.6 0 0 0 .442.94c.196.247.424.419.684.515.262.096.542.104.84.024a1.39 1.39 0 0 0 .503-.244 1.136 1.136 0 0 0 .439-.922l.75-.202a1.802 1.802 0 0 1-.617 1.588 2.198 2.198 0 0 1-.895.455Zm3.861-6.383.17.637-2.635.706-.17-.637 2.635-.706Zm-.536 5.383-1.49-5.563c-.076-.28-.073-.531.009-.753.082-.222.215-.408.4-.558.185-.15.394-.255.627-.318a1.814 1.814 0 0 1 .747-.064l-.042.708a3.824 3.824 0 0 0-.172-.005.997.997 0 0 0-.269.04c-.248.067-.41.178-.487.333-.075.154-.08.352-.015.594l1.443 5.385-.751.201Zm2.886-.773-.154-.573 1.52-2.932c.18-.343.323-.639.432-.886.108-.25.177-.475.207-.676a1.458 1.458 0 0 0-.032-.606 1.094 1.094 0 0 0-.875-.82 1.495 1.495 0 0 0-.673.034c-.25.067-.455.178-.614.332a1.112 1.112 0 0 0-.314.545c-.05.211-.043.44.024.689l-.751.201a1.959 1.959 0 0 1-.005-1.076 1.9 1.9 0 0 1 .538-.868 2.25 2.25 0 0 1 .963-.517 2.156 2.156 0 0 1 1.08-.03c.338.082.628.238.869.466.24.23.406.511.496.846.064.24.084.486.058.739a3.22 3.22 0 0 1-.242.88 13.91 13.91 0 0 1-.602 1.253l-1.044 1.958.013.05 3.03-.811.188.7-4.112 1.102Zm7.652-1.955c-.42.112-.814.14-1.181.085a1.993 1.993 0 0 1-.94-.393 1.674 1.674 0 0 1-.554-.817l.802-.215a.981.981 0 0 0 .362.486c.168.117.366.189.594.216.228.028.467.008.717-.059.28-.075.515-.19.706-.346a1.27 1.27 0 0 0 .4-.544c.076-.207.084-.425.022-.654a1.175 1.175 0 0 0-.348-.585 1.222 1.222 0 0 0-.638-.293c-.257-.043-.55-.02-.882.069l-.522.14-.187-.7.522-.14c.259-.07.473-.177.643-.323a1.096 1.096 0 0 0 .364-1.162c-.059-.22-.159-.4-.3-.537a1.036 1.036 0 0 0-.516-.27 1.375 1.375 0 0 0-.66.03c-.226.06-.427.158-.604.294a1.227 1.227 0 0 0-.39.483.953.953 0 0 0-.055.609l-.763.204a1.607 1.607 0 0 1 .068-.98c.124-.31.322-.58.595-.808.276-.228.601-.392.977-.493.403-.108.77-.12 1.103-.033.332.084.61.238.836.461.226.224.38.49.463.797.098.367.086.706-.038 1.017a1.52 1.52 0 0 1-.636.747l.014.05c.43-.042.798.047 1.105.267.306.218.515.534.626.948a1.71 1.71 0 0 1-.034 1.032 2.036 2.036 0 0 1-.605.872c-.288.25-.643.432-1.066.545Zm5.669-1.519c-.269.067-.55.088-.843.062a1.99 1.99 0 0 1-.864-.297c-.284-.174-.545-.442-.785-.803-.24-.363-.442-.846-.603-1.448a6.755 6.755 0 0 1-.249-1.578c-.012-.476.044-.895.168-1.256.124-.363.31-.662.558-.9a2.11 2.11 0 0 1 .925-.503c.365-.098.71-.112 1.033-.042.325.068.613.207.862.417.25.21.447.478.59.8l-.777.209a1.49 1.49 0 0 0-.615-.616c-.26-.138-.561-.16-.905-.068-.505.135-.844.461-1.017.978-.17.517-.151 1.172.06 1.966l.05-.013a1.984 1.984 0 0 1 .767-1.021 1.96 1.96 0 0 1 .605-.275c.374-.1.74-.098 1.1.006.36.101.676.29.95.567.274.275.467.622.58 1.042.108.403.117.797.026 1.18a2.133 2.133 0 0 1-.547 1c-.273.282-.629.48-1.07.593Zm-.188-.7c.267-.072.49-.203.666-.393.178-.191.299-.416.362-.674a1.58 1.58 0 0 0-.014-.801 1.558 1.558 0 0 0-.378-.687 1.433 1.433 0 0 0-.636-.4 1.352 1.352 0 0 0-.766-.005 1.37 1.37 0 0 0-.53.272 1.505 1.505 0 0 0-.372.447 1.623 1.623 0 0 0-.178.556 1.562 1.562 0 0 0 1.062 1.673c.251.08.513.085.784.012ZM44.64 157.12l2.276-.61 3.294-7.568-.018.005a4.053 4.053 0 0 0 .09-2.388c-.595-2.222-2.94-3.515-5.252-2.896-2.312.62-3.696 2.912-3.1 5.135.57 2.133 2.762 3.428 4.987 2.986l-2.278 5.336Zm2.042-7.29c-1.237.331-2.406-.374-2.727-1.575-.317-1.183.342-2.378 1.58-2.709 1.236-.332 2.405.373 2.722 1.556.321 1.201-.338 2.396-1.575 2.728Zm7.214 4.81 2.276-.61 3.294-7.568-.018.004c.262-.742.307-1.58.09-2.387-.595-2.222-2.94-3.515-5.252-2.896-2.312.62-3.696 2.912-3.1 5.134.571 2.133 2.763 3.429 4.988 2.986l-2.278 5.337Zm2.042-7.291c-1.236.332-2.405-.373-2.727-1.574-.317-1.183.343-2.378 1.58-2.71 1.236-.331 2.405.374 2.722 1.557.322 1.201-.338 2.396-1.575 2.727Zm7.214 4.811 2.277-.61 3.293-7.569-.017.005a4.05 4.05 0 0 0 .09-2.387c-.596-2.223-2.94-3.516-5.252-2.896-2.313.62-3.697 2.911-3.1 5.134.57 2.133 2.762 3.429 4.987 2.986l-2.278 5.337Zm2.043-7.291c-1.237.331-2.406-.374-2.727-1.575-.317-1.183.342-2.378 1.579-2.709 1.237-.331 2.406.374 2.722 1.557.322 1.201-.337 2.396-1.574 2.727Zm15.545 2.866c2.707-.725 3.456-1.944 3.456-1.944l-.466-1.739c-.018.005-1.139 1.343-3.415 1.953-2.098.562-3.447-.46-4.046-1.836l7.402-1.984-.24-.896c-.6-2.241-2.755-4.045-5.444-3.325-2.868.768-4.434 3.455-3.69 6.233.716 2.671 3.18 4.412 6.443 3.538Zm-4.785-5.096c-.085-.746.178-2.488 2.204-3.03 2.025-.543 2.91.891 3.173 1.589l-5.377 1.441Zm11.765 2.938 1.936-.519-2.128-7.941 3.173-.85-.423-1.577-3.173.85-.792-2.958-4.288 6.01 3.567-.956 2.128 7.941Zm8.14-12.421c-2.258.605-2.501 2.207-2.501 2.207l-1.172-4.374-1.85.842 3.261 12.171 1.936-.519-1.397-5.216c-.466-1.739.553-2.953 1.897-3.314 1.273-.341 2.305.286 2.704 1.773l1.475 5.503 1.935-.518-1.527-5.7c-.682-2.546-2.682-3.412-4.76-2.855Z" fill="#000"/><path opacity=".2" d="m53.027 178.851-3.092-11.542.74-.198 3.092 11.542-.74.198Zm.18-8.582a1.363 1.363 0 0 0-.861-.832c-.412-.144-.883-.145-1.412-.004-.379.102-.69.25-.935.444a1.562 1.562 0 0 0-.514.66 1.188 1.188 0 0 0-.038.759c.059.219.16.395.305.527.148.131.32.228.518.291.2.06.407.099.622.119.213.017.417.023.61.02l.964-.007c.314-.007.642.01.984.05.343.041.674.126.992.257.319.13.599.322.84.576.246.254.424.588.535 1.003.14.523.13 1.023-.032 1.501-.16.478-.463.902-.91 1.274-.446.37-1.03.652-1.75.846-.692.185-1.32.235-1.883.151-.564-.084-1.043-.289-1.436-.615-.394-.33-.681-.768-.86-1.316l1.398-.375c.116.327.299.576.548.747.25.168.54.266.866.295.33.025.672-.011 1.03-.107a2.895 2.895 0 0 0 1.001-.466 1.82 1.82 0 0 0 .59-.719c.117-.273.135-.56.055-.86-.073-.274-.212-.477-.415-.609a1.778 1.778 0 0 0-.742-.265 6.289 6.289 0 0 0-.97-.064l-1.17-.005c-.794-.004-1.46-.143-1.997-.418-.534-.275-.888-.735-1.06-1.378-.143-.532-.123-1.035.06-1.509.182-.474.49-.887.924-1.238.433-.355.96-.615 1.579-.781.625-.168 1.206-.206 1.743-.114.54.09 1 .291 1.379.602.379.307.64.707.785 1.2l-1.343.36Zm5.395-4.181a3.687 3.687 0 0 1 1.278-.1c.439.04.864.184 1.275.431.414.247.794.628 1.138 1.145.347.513.635 1.189.863 2.03.217.809.328 1.55.335 2.225.006.672-.084 1.265-.272 1.779a3.17 3.17 0 0 1-.831 1.281 3.18 3.18 0 0 1-1.361.727c-.55.148-1.068.17-1.553.068a2.89 2.89 0 0 1-1.282-.618 3.072 3.072 0 0 1-.855-1.191l1.375-.369c.196.373.466.645.808.818.345.168.739.193 1.18.075.677-.181 1.125-.617 1.346-1.308.22-.694.19-1.571-.092-2.633l-.072.019a2.711 2.711 0 0 1-1.071 1.466 2.84 2.84 0 0 1-.883.401 2.859 2.859 0 0 1-1.557-.003 3.001 3.001 0 0 1-1.33-.798c-.381-.388-.65-.875-.807-1.461a3.321 3.321 0 0 1-.029-1.694c.14-.546.412-1.022.816-1.426.406-.409.933-.697 1.581-.864Zm.319 1.171a1.845 1.845 0 0 0-.882.517 1.916 1.916 0 0 0-.475.876c-.084.335-.079.682.017 1.039.096.358.261.662.496.911.236.246.514.418.834.516.321.095.66.094 1.014-.001a1.86 1.86 0 0 0 .699-.351c.2-.164.363-.359.486-.585.122-.229.2-.472.234-.73a1.952 1.952 0 0 0-.051-.769 1.984 1.984 0 0 0-.497-.881 1.958 1.958 0 0 0-.847-.527 1.788 1.788 0 0 0-1.028-.015Zm7.753-3.333a3.687 3.687 0 0 1 1.277-.101c.44.04.865.184 1.276.431.414.247.793.628 1.138 1.145.347.513.634 1.19.863 2.03.217.809.328 1.551.335 2.225.006.672-.085 1.265-.272 1.779a3.157 3.157 0 0 1-.831 1.281 3.18 3.18 0 0 1-1.362.727c-.55.148-1.067.17-1.552.068a2.89 2.89 0 0 1-1.282-.618 3.072 3.072 0 0 1-.855-1.191l1.375-.369c.196.373.466.645.808.818.345.168.738.193 1.18.075.676-.181 1.125-.617 1.346-1.308.22-.693.19-1.571-.092-2.633l-.072.019a2.586 2.586 0 0 1-.407.825 2.725 2.725 0 0 1-.664.641c-.261.18-.556.314-.884.401a2.859 2.859 0 0 1-1.556-.003 3.001 3.001 0 0 1-1.33-.798c-.382-.388-.65-.875-.808-1.461a3.316 3.316 0 0 1-.028-1.693c.14-.547.412-1.023.816-1.427.406-.409.933-.696 1.58-.863Zm.318 1.171a1.836 1.836 0 0 0-.88.516 1.916 1.916 0 0 0-.476.876 2.04 2.04 0 0 0 .017 1.04c.096.357.261.661.495.911.237.246.515.417.835.516.321.094.66.093 1.014-.002a1.86 1.86 0 0 0 .698-.351 1.94 1.94 0 0 0 .487-.585c.122-.229.2-.472.234-.729a1.95 1.95 0 0 0-.051-.769 1.982 1.982 0 0 0-.497-.882 1.958 1.958 0 0 0-.847-.527 1.788 1.788 0 0 0-1.029-.014Zm7.754-3.334a3.687 3.687 0 0 1 1.277-.101c.44.04.865.184 1.276.431.414.247.793.629 1.138 1.145.347.513.634 1.19.863 2.031.216.808.328 1.55.335 2.224.006.672-.085 1.265-.273 1.779a3.157 3.157 0 0 1-.83 1.281 3.2 3.2 0 0 1-1.362.728c-.55.147-1.067.17-1.552.068a2.901 2.901 0 0 1-1.282-.619 3.07 3.07 0 0 1-.856-1.191l1.376-.369c.196.373.466.645.808.818.345.168.738.194 1.18.075.676-.181 1.125-.617 1.346-1.308.22-.693.19-1.571-.092-2.633l-.072.019a2.576 2.576 0 0 1-.407.825 2.747 2.747 0 0 1-.665.642 2.86 2.86 0 0 1-.883.401 2.868 2.868 0 0 1-1.557-.004 2.993 2.993 0 0 1-1.33-.798c-.38-.388-.65-.875-.807-1.461a3.316 3.316 0 0 1-.028-1.693c.14-.547.412-1.022.816-1.427.406-.408.933-.696 1.58-.863Zm.318 1.171a1.835 1.835 0 0 0-.881.516 1.919 1.919 0 0 0-.476.877c-.084.335-.078.681.018 1.039a2.1 2.1 0 0 0 .495.911c.237.246.515.418.834.516.322.094.66.094 1.015-.002.264-.07.497-.188.698-.351.201-.163.363-.358.486-.584.123-.23.2-.473.235-.73a1.95 1.95 0 0 0-.052-.769 1.983 1.983 0 0 0-.497-.882 1.968 1.968 0 0 0-.846-.527 1.788 1.788 0 0 0-1.029-.014Zm7.753-3.334a3.712 3.712 0 0 1 1.278-.101c.44.04.865.184 1.276.432.414.246.793.628 1.138 1.144.346.513.634 1.19.862 2.031.217.808.329 1.55.336 2.225.006.671-.085 1.264-.273 1.779-.184.513-.461.94-.83 1.281-.37.34-.824.583-1.362.727-.55.147-1.068.17-1.552.068a2.89 2.89 0 0 1-1.282-.618 3.082 3.082 0 0 1-.856-1.192l1.375-.368c.197.372.466.645.809.817.345.169.738.194 1.18.075.676-.181 1.125-.617 1.346-1.307.22-.694.189-1.572-.092-2.634l-.072.02a2.58 2.58 0 0 1-.408.824 2.747 2.747 0 0 1-.664.642 2.862 2.862 0 0 1-.883.401 2.878 2.878 0 0 1-1.557-.003 2.995 2.995 0 0 1-1.33-.799c-.381-.388-.65-.874-.807-1.461a3.316 3.316 0 0 1-.029-1.693c.14-.547.413-1.022.817-1.427.406-.408.933-.696 1.58-.863Zm.319 1.171a1.835 1.835 0 0 0-.881.516 1.924 1.924 0 0 0-.476.877c-.084.335-.078.681.018 1.039.096.358.26.661.495.911.237.246.515.418.834.516.322.094.66.094 1.015-.001.264-.071.497-.188.698-.352.201-.163.363-.358.486-.584.122-.23.2-.473.235-.73a1.95 1.95 0 0 0-.052-.769 1.982 1.982 0 0 0-.497-.882 1.968 1.968 0 0 0-.847-.527 1.788 1.788 0 0 0-1.028-.014Z" fill="#000"/><circle cx="226.247" cy="63.642" r="11.308" transform="rotate(-15 226.247 63.642)" stroke="#000" stroke-width=".58"/><path d="m223.017 67.89-.6-2.286 2.235-.612m4.961-5.443.599 2.287-2.235.611" stroke="#171717" stroke-width=".58" stroke-linecap="round" stroke-linejoin="round"/><path d="M222.853 63.443a3.588 3.588 0 0 1 .561-1.675c.322-.501.763-.91 1.282-1.19a3.407 3.407 0 0 1 3.352.07l2.164 1.188m-7.795 3.768 2.164 1.189a3.401 3.401 0 0 0 3.352.069c.519-.28.96-.689 1.283-1.19a3.61 3.61 0 0 0 .561-1.675" stroke="#171717" stroke-width=".58" stroke-linecap="round" stroke-linejoin="round"/><path d="M216.21 38.212a.197.197 0 0 1-.08.01.347.347 0 0 1-.368-.232 4.288 4.288 0 0 1-.189-.646c-.505-2.31.819-4.755 3.093-5.707l-.271-1.241a.504.504 0 0 1 .206-.512.497.497 0 0 1 .543-.043l3.718 2.157a.507.507 0 0 1 .252.344.56.56 0 0 1-.082.433l-2.427 3.803a.522.522 0 0 1-.501.237.454.454 0 0 1-.394-.351l-.302-1.381a4.683 4.683 0 0 0-2.916 2.86.394.394 0 0 1-.282.27Zm2.781-7.781.243 1.111c.052.237-.093.493-.33.591-2.041.833-3.234 3.014-2.786 5.065l.028.13a5.287 5.287 0 0 1 3.197-2.81.484.484 0 0 1 .384.033c.119.06.203.175.231.304l.281 1.284 2.31-3.635-.002-.01-3.556-2.063Z" fill="#212121"/><circle cx="218.532" cy="33.812" transform="rotate(-15 218.532 33.812)" stroke="#000" stroke-width=".58" r="11.598"/><defs><linearGradient id="a" x1="-19.271" y1="183.356" x2="190.51" y2="304.071" gradientUnits="userSpaceOnUse"><stop stop-color="#F1FF84"/><stop offset="1" stop-color="#E1F442"/></linearGradient></defs></svg>