<svg width="657" height="387" fill="none" xmlns="http://www.w3.org/2000/svg"><path fill="#FE9426" d="m25.582 292.667-4.917-14.699 14.699-4.916 4.916 14.698z"/><path fill="#fff" d="m206.035 191.923-8.423-13.01 13.01-8.423 8.424 13.01zm-82.043 95.619 3.833-15.017 15.018 3.833-3.834 15.017z"/><path fill="#0F59FA" d="m293.073 181.122-.028-15.499 15.499-.028.028 15.499z"/><path fill="#FE9426" d="m0 89.93 3.834-15.018 15.017 3.834-3.833 15.017z"/><path fill="#0F59FA" d="m74.94 43.39-.028-15.498 15.499-.028.028 15.499zm117.256 324.188-4.916-14.699 14.698-4.916 4.917 14.699z"/><path fill="#FE9426" d="m373.267 228.531 6.014-14.285 14.285 6.014-6.014 14.285z"/><path fill="#fff" d="m313.237 363.703-8.423-13.01 13.01-8.423 8.424 13.01z"/><path fill="#FE9426" d="m453.248 383.808 2.266-15.332 15.333 2.266-2.267 15.332zm133.13-368.79L590.212 0l15.017 3.834-3.833 15.017z"/><path fill="#0F59FA" d="m474.973 270.53 12.795-8.746 8.747 12.795-12.796 8.746z"/><path fill="#fff" d="m443.041 76.972-.028-15.5 15.5-.027.027 15.499zm158.086 209.723 10.214-11.658 11.657 10.214-10.213 11.658z"/><path fill="#0F59FA" d="m635.458 372.865 12.795-8.746L657 376.914l-12.796 8.746z"/><path fill="#fff" d="m311.14 57.88-.028-15.499 15.499-.028.028 15.5z"/><path fill="#FE9426" d="m595.39 94.483 10.214-11.658 11.658 10.214-10.214 11.658z"/></svg>