<svg width="586" height="345" fill="none" xmlns="http://www.w3.org/2000/svg"><path fill="#FE9426" d="m22.815 261.01-4.385-13.108 13.108-4.384 4.385 13.108z"/><path fill="#fff" d="m183.749 171.163-7.511-11.603 11.602-7.511 7.512 11.603zM110.58 256.44l3.419-13.393 13.392 3.42-3.418 13.392z"/><path fill="#0F59FA" d="m261.373 161.531-.025-13.822 13.822-.025.025 13.822z"/><path fill="#FE9426" d="M0 80.202 3.418 66.81l13.393 3.418-3.419 13.393z"/><path fill="#0F59FA" d="m66.833 38.697-.025-13.822 13.822-.025.025 13.822zm104.574 289.122-4.384-13.108 13.108-4.385 4.384 13.109z"/><path fill="#FE9426" d="m332.893 203.811 5.363-12.739 12.74 5.363-5.364 12.74z"/><path fill="#fff" d="m279.355 324.363-7.511-11.603 11.602-7.511 7.512 11.603z"/><path fill="#FE9426" d="m404.223 342.293 2.021-13.673 13.674 2.02-2.022 13.674zm118.73-328.9L526.372.001l13.392 3.418-3.419 13.393z"/><path fill="#0F59FA" d="m423.598 241.268 11.412-7.8 7.8 11.411-11.412 7.8z"/><path fill="#fff" d="m395.12 68.646-.026-13.822 13.822-.025.025 13.822zm140.985 187.039 9.108-10.396 10.397 9.108-9.109 10.396z"/><path fill="#0F59FA" d="m566.724 332.534 11.412-7.8 7.8 11.411-11.412 7.8z"/><path fill="#fff" d="m277.485 51.62-.025-13.822 13.822-.025.025 13.822z"/><path fill="#FE9426" d="m530.99 84.263 9.11-10.396 10.395 9.108-9.108 10.397z"/></svg>