<svg width="41" height="43" fill="none" xmlns="http://www.w3.org/2000/svg"><rect x="15.719" y="1.261" width="7.398" height="10.13" rx="1.199" transform="rotate(25 15.719 1.261)" fill="#FE9426" stroke="#131313" stroke-width=".799"/><rect x="29.55" y="4.111" width="7.398" height="10.13" rx="1.199" transform="rotate(66.053 29.55 4.11)" fill="#FE9426" stroke="#131313" stroke-width=".799"/><rect x="38.955" y="13.056" width="7.398" height="10.13" rx="1.199" transform="rotate(105.511 38.955 13.056)" fill="#FE9426" stroke="#131313" stroke-width=".799"/><rect x="40.341" y="26.045" width="7.398" height="10.13" rx="1.199" transform="rotate(145.351 40.341 26.045)" fill="#FE9426" stroke="#131313" stroke-width=".799"/><rect x="33.309" y="36.872" width="7.398" height="10.13" rx="1.199" transform="rotate(-174.749 33.309 36.872)" fill="#FE9426" stroke="#131313" stroke-width=".799"/><rect x="19.935" y="41.736" width="7.398" height="10.13" rx="1.199" transform="rotate(-137.129 19.935 41.736)" fill="#FE9426" stroke="#131313" stroke-width=".799"/><rect x="6.479" y="35.538" width="7.398" height="10.13" rx="1.199" transform="rotate(-94.78 6.48 35.538)" fill="#FE9426" stroke="#131313" stroke-width=".799"/><rect x="1.119" y="23.86" width="7.398" height="10.13" rx="1.199" transform="rotate(-56.227 1.119 23.86)" fill="#FE9426" stroke="#131313" stroke-width=".799"/><rect x="4.679" y="9.813" width="7.398" height="10.13" rx="1.199" transform="rotate(-10.264 4.68 9.813)" fill="#FE9426" stroke="#131313" stroke-width=".799"/></svg>