<svg width="50" height="43" fill="none" xmlns="http://www.w3.org/2000/svg"><path d="M41.424 13.984A17.978 17.978 0 0 0 25.186 3.789 17.978 17.978 0 0 0 8.95 13.984H5.593C8.666 6.224 16.28.73 25.186.73s16.52 5.493 19.594 13.254h-3.356ZM2.635 29.786A20.709 20.709 0 0 1 .974 21.63h3.08c0 2.939.715 5.712 1.983 8.156h-3.4Zm38.768 0a20.71 20.71 0 0 0 1.663-8.156h-3.08c0 2.939-.716 5.712-1.983 8.156h3.4Z" fill="#E6FC35"/><path d="M7.646 21.63c0-2.699.515-5.278 1.453-7.646h3.356a17.67 17.67 0 0 0-1.73 7.646H7.647Zm42.093 0c0-2.699-.515-5.278-1.453-7.646H44.93a17.67 17.67 0 0 1 1.729 7.646h3.08ZM6.106 29.786A21.055 21.055 0 0 0 25.49 42.53c8.71 0 16.183-5.254 19.383-12.744h-3.4a17.98 17.98 0 0 1-15.983 9.685 17.98 17.98 0 0 1-15.984-9.685h-3.4Z" fill="#E6FC35"/></svg>