<svg width="36" height="33" viewBox="0 0 36 33" fill="none" xmlns="http://www.w3.org/2000/svg">
<path fill-rule="evenodd" clip-rule="evenodd" d="M3.5069 22.5032C5.94143 28.2091 11.6029 32.2084 18.1984 32.2084C24.7939 32.2084 30.4554 28.2091 32.8899 22.5032H31.1704C28.8413 27.3204 23.9079 30.6432 18.1984 30.6432C12.4889 30.6432 7.55549 27.3204 5.22637 22.5032H3.5069Z" fill="white"/>
<path fill-rule="evenodd" clip-rule="evenodd" d="M4.55533 10.6252C3.89416 12.3776 3.53238 14.2768 3.53238 16.2605L3.53238 16.2607H5.09764V16.2605C5.09764 14.2607 5.50528 12.3561 6.242 10.6252L4.55533 10.6252ZM32.7541 10.6252C33.4908 12.3561 33.8984 14.2607 33.8984 16.2605V16.2607H35.4637V16.2605C35.4637 14.2768 35.1019 12.3776 34.4407 10.6252L32.7541 10.6252Z" fill="white"/>
<path fill-rule="evenodd" clip-rule="evenodd" d="M32.6284 10.7063C30.3506 4.66946 24.5195 0.375781 17.6856 0.375781C10.8517 0.37578 5.02062 4.66945 2.74289 10.7063L4.42955 10.7063C6.62271 5.55367 11.7323 1.94104 17.6856 1.94104C23.639 1.94104 28.7485 5.55367 30.9417 10.7063L32.6284 10.7063Z" fill="white"/>
<path fill-rule="evenodd" clip-rule="evenodd" d="M0.771332 16.1447V16.144H2.33659V16.1447C2.33659 18.3883 2.84971 20.5122 3.765 22.4052H2.04552C1.22529 20.4828 0.771332 18.3668 0.771332 16.1447ZM31.4284 22.4052C32.2487 20.4828 32.7026 18.3668 32.7026 16.1447V16.144H31.1374V16.1447C31.1374 18.3883 30.6243 20.5122 29.709 22.4052H31.4284Z" fill="white"/>
</svg>
