<svg width="273" height="202" viewBox="0 0 273 202" fill="none" xmlns="http://www.w3.org/2000/svg">
<rect x="0.712997" y="63.3589" width="243.56" height="143.043" rx="7.73207" transform="rotate(-15 0.712997 63.3589)" fill="url(#paint0_linear_1_543)"/>
<path d="M28.5581 88.4033C28.0786 88.5318 27.6352 88.5108 27.2279 88.3402C26.8201 88.1675 26.4602 87.8557 26.1484 87.4048C25.836 86.9519 25.5848 86.371 25.3949 85.6624C25.2062 84.9579 25.1341 84.3325 25.1788 83.7862C25.2249 83.2371 25.3815 82.7858 25.6483 82.4323C25.9167 82.0762 26.2886 81.8344 26.7639 81.707C27.2391 81.5797 27.681 81.6034 28.0894 81.7783C28.4994 81.9504 28.8606 82.2629 29.173 82.7159C29.4869 83.1662 29.7383 83.7436 29.927 84.448C30.1169 85.1567 30.1898 85.7853 30.1458 86.3337C30.1012 86.8801 29.9454 87.33 29.6785 87.6835C29.4111 88.0349 29.0376 88.2748 28.5581 88.4033ZM28.3705 87.7031C28.8458 87.5758 29.1536 87.2477 29.2939 86.7189C29.4342 86.1901 29.3906 85.5014 29.1632 84.6527C29.012 84.0883 28.8227 83.6239 28.5955 83.2595C28.3703 82.8946 28.1175 82.6383 27.8368 82.4906C27.5583 82.3424 27.2621 82.3104 26.9481 82.3945C26.477 82.5207 26.1712 82.8517 26.0304 83.3874C25.8892 83.921 25.9319 84.6111 26.1588 85.4577C26.31 86.0221 26.4979 86.4857 26.7225 86.8485C26.947 87.2113 27.1983 87.4658 27.4762 87.6119C27.7563 87.7574 28.0544 87.7879 28.3705 87.7031ZM31.2727 82.3409L32.9795 84.0258L33.6151 81.7133L34.4808 81.4813L33.5571 84.3486L35.7907 86.3699L34.925 86.6018L33.2455 85.0188L32.5826 87.2295L31.7169 87.4614L32.6151 84.601L30.407 82.5729L31.2727 82.3409ZM37.2316 85.9838L36.4041 86.2055L37.051 79.0461L37.8657 78.8278L42.0056 84.7046L41.1781 84.9263L37.7601 79.9613L37.7092 79.975L37.2316 85.9838ZM36.8549 83.3558L40.1903 82.4621L40.378 83.1622L37.0425 84.056L36.8549 83.3558ZM43.0209 84.4325L41.2743 77.9145L43.5531 77.3039C44.0072 77.1822 44.4027 77.1604 44.7397 77.2384C45.0761 77.3142 45.3517 77.4644 45.5665 77.6888C45.7807 77.9111 45.9305 78.1814 46.0157 78.4997C46.0908 78.7798 46.1029 79.0244 46.0521 79.2336C46.0034 79.4422 45.9126 79.6212 45.7798 79.7705C45.6491 79.9192 45.4972 80.044 45.3241 80.145L45.3412 80.2086C45.544 80.1679 45.7633 80.1842 45.999 80.2575C46.2346 80.3308 46.4522 80.4681 46.6517 80.6693C46.8511 80.8706 46.9969 81.1431 47.089 81.4868C47.1766 81.8136 47.1811 82.1273 47.1025 82.4281C47.0239 82.7289 46.8448 82.9986 46.5654 83.2372C46.2859 83.4758 45.8895 83.6639 45.376 83.8015L43.0209 84.4325ZM43.6225 83.5209L45.1884 83.1013C45.704 82.9631 46.0433 82.7654 46.2063 82.5079C46.3708 82.2478 46.4147 81.9745 46.3379 81.6881C46.2788 81.4674 46.168 81.2788 46.0055 81.1222C45.8425 80.9635 45.6419 80.8558 45.4038 80.799C45.1652 80.7402 44.9037 80.7488 44.6194 80.825L43.0154 81.2548L43.6225 83.5209ZM42.8312 80.5674L44.2952 80.1751C44.5328 80.1114 44.7346 80.0073 44.9005 79.8628C45.0686 79.7177 45.1861 79.5452 45.2531 79.3453C45.3222 79.1449 45.326 78.9301 45.2646 78.701C45.1879 78.4145 45.0231 78.1983 44.7702 78.0523C44.5167 77.9042 44.1736 77.8881 43.7407 78.0041L42.2513 78.4032L42.8312 80.5674ZM49.04 75.7382C49.3079 75.6687 49.5889 75.6479 49.883 75.676C50.177 75.7041 50.4654 75.8042 50.748 75.9764C51.0301 76.1464 51.2911 76.4119 51.5311 76.7729C51.7711 77.1338 51.9712 77.6134 52.1315 78.2118C52.2867 78.791 52.3694 79.3203 52.3796 79.7997C52.3914 80.2764 52.3356 80.6961 52.2122 81.0589C52.091 81.4212 51.9052 81.7211 51.6551 81.9587C51.407 82.1957 51.0995 82.3634 50.7324 82.4617C50.3675 82.5595 50.0225 82.5747 49.6974 82.5071C49.3738 82.4369 49.0861 82.2968 48.8343 82.0869C48.584 81.8742 48.3874 81.6028 48.2443 81.2728L49.0209 81.0647C49.1711 81.3451 49.3763 81.555 49.6365 81.6945C49.8983 81.8313 50.2011 81.8537 50.5448 81.7616C51.0477 81.6268 51.3856 81.3009 51.5586 80.7838C51.7337 80.2662 51.7138 79.6063 51.4989 78.8043L51.448 78.8179C51.3769 79.028 51.277 79.2196 51.1484 79.3928C51.0197 79.566 50.865 79.7144 50.6843 79.8378C50.5036 79.9613 50.3008 80.0531 50.0759 80.1134C49.7025 80.2135 49.3351 80.213 48.9737 80.112C48.6139 80.0083 48.2971 79.8191 48.0234 79.5445C47.7513 79.2672 47.5589 78.9185 47.4464 78.4984C47.3395 78.0995 47.3308 77.7107 47.4204 77.3319C47.5114 76.9505 47.6929 76.6176 47.9646 76.3333C48.2385 76.0484 48.597 75.8501 49.04 75.7382ZM49.2276 76.4384C48.9603 76.51 48.7374 76.6413 48.5589 76.8324C48.3819 77.0208 48.261 77.2443 48.1961 77.5027C48.1327 77.7585 48.1374 78.0222 48.2102 78.2937C48.283 78.5653 48.4086 78.7966 48.5871 78.9875C48.7672 79.1758 48.9788 79.3078 49.222 79.3837C49.4667 79.4568 49.7228 79.4576 49.9901 79.3859C50.1917 79.3319 50.369 79.2424 50.5219 79.1172C50.6743 78.99 50.7967 78.8401 50.8892 78.6675C50.9832 78.4922 51.0438 78.3065 51.0708 78.1105C51.0973 77.9124 51.0847 77.7168 51.033 77.5237C50.9648 77.2691 50.8393 77.0469 50.6565 76.8571C50.4759 76.6667 50.2599 76.5313 50.0087 76.4508C49.7596 76.3697 49.4992 76.3656 49.2276 76.4384ZM54.6742 81.3646C54.5172 81.4067 54.3674 81.3866 54.2248 81.3042C54.0823 81.2219 53.9899 81.1022 53.9479 80.9452C53.9058 80.7882 53.9259 80.6384 54.0082 80.4958C54.0906 80.3533 54.2102 80.2609 54.3672 80.2189C54.5242 80.1768 54.674 80.1969 54.8166 80.2792C54.9592 80.3616 55.0515 80.4812 55.0936 80.6382C55.1215 80.7422 55.1205 80.8448 55.0908 80.946C55.0632 81.0466 55.013 81.1351 54.9402 81.2115C54.869 81.2851 54.7803 81.3362 54.6742 81.3646ZM57.1424 80.7033C56.9854 80.7453 56.8356 80.7252 56.693 80.6429C56.5504 80.5606 56.4581 80.4409 56.416 80.2839C56.3739 80.1269 56.3941 79.9771 56.4764 79.8345C56.5587 79.6919 56.6784 79.5996 56.8354 79.5575C56.9924 79.5154 57.1422 79.5356 57.2848 79.6179C57.4274 79.7002 57.5197 79.8199 57.5618 79.9769C57.5896 80.0809 57.5887 80.1834 57.5589 80.2846C57.5313 80.3853 57.4811 80.4738 57.4083 80.5501C57.3371 80.6238 57.2485 80.6748 57.1424 80.7033ZM59.6105 80.0419C59.4535 80.084 59.3037 80.0639 59.1611 79.9816C59.0185 79.8992 58.9262 79.7796 58.8841 79.6226C58.8421 79.4655 58.8622 79.3157 58.9445 79.1732C59.0268 79.0306 59.1465 78.9383 59.3035 78.8962C59.4605 78.8541 59.6103 78.8742 59.7529 78.9566C59.8955 79.0389 59.9878 79.1585 60.0299 79.3156C60.0578 79.4195 60.0568 79.5221 60.0271 79.6233C59.9995 79.7239 59.9493 79.8124 59.8765 79.8888C59.8053 79.9625 59.7166 80.0135 59.6105 80.0419ZM63.5309 79.0461C63.0726 79.1689 62.6489 79.1664 62.2599 79.0387C61.871 78.9109 61.5365 78.681 61.2565 78.349C60.9765 78.017 60.7711 77.6069 60.6403 77.1189C60.5073 76.6224 60.4811 76.1599 60.5618 75.7312C60.6441 75.2998 60.821 74.9329 61.0924 74.6305C61.3654 74.3254 61.7226 74.1137 62.1639 73.9954C62.5076 73.9033 62.8345 73.884 63.1444 73.9374C63.4543 73.9908 63.7281 74.1084 63.9656 74.2904C64.2031 74.4724 64.384 74.7104 64.5083 75.0046L63.7572 75.2059C63.6402 74.9984 63.46 74.8352 63.2167 74.7162C62.9748 74.5945 62.6884 74.578 62.3574 74.6667C62.0646 74.7452 61.8284 74.8904 61.6486 75.1023C61.4705 75.3115 61.3568 75.5705 61.3076 75.8793C61.26 76.1854 61.2857 76.523 61.3846 76.8922C61.4858 77.2699 61.6333 77.5829 61.8272 77.8311C62.0232 78.0788 62.2512 78.2508 62.5113 78.3471C62.7734 78.4428 63.053 78.4509 63.3501 78.3713C63.5453 78.319 63.7133 78.2376 63.8543 78.1271C63.9952 78.0165 64.1038 77.8828 64.18 77.726C64.2562 77.5691 64.2938 77.3953 64.2927 77.2046L65.0438 77.0033C65.0787 77.3032 65.0433 77.5913 64.9377 77.8675C64.8336 78.141 64.6629 78.3823 64.4256 78.5914C64.1898 78.7979 63.8916 78.9494 63.5309 79.0461ZM67.391 72.6631L67.5615 73.2996L64.9263 74.0057L64.7557 73.3692L67.391 72.6631ZM66.8549 78.0462L65.3642 72.483C65.2892 72.2029 65.2924 71.9519 65.3739 71.7299C65.4555 71.5079 65.5887 71.3221 65.7738 71.1725C65.9588 71.0229 66.168 70.9168 66.4014 70.8542C66.586 70.8048 66.7406 70.7793 66.8653 70.7777C66.99 70.7761 67.0843 70.7804 67.1485 70.7905L67.106 71.4978C67.0644 71.4953 67.0071 71.4936 66.9341 71.4927C66.8632 71.4912 66.7736 71.5049 66.6654 71.5339C66.4172 71.6005 66.2547 71.7111 66.1779 71.8658C66.1032 72.02 66.0983 72.218 66.1631 72.4599L67.606 77.845L66.8549 78.0462ZM69.7408 77.273L69.5873 76.7001L71.1077 73.7684C71.2863 73.425 71.4299 73.1295 71.5387 72.882C71.647 72.6324 71.7162 72.4069 71.7464 72.2056C71.7781 72.0015 71.7672 71.7997 71.7138 71.6003C71.6524 71.3711 71.5441 71.1875 71.3888 71.0495C71.2357 70.9108 71.0525 70.8212 70.8392 70.7806C70.6259 70.7399 70.4015 70.7512 70.166 70.8143C69.9156 70.8814 69.711 70.9919 69.5522 71.1459C69.3949 71.2972 69.29 71.4788 69.2376 71.6907C69.1874 71.902 69.1955 72.1318 69.262 72.38L68.5109 72.5813C68.4086 72.1994 68.4068 71.8405 68.5056 71.5048C68.6044 71.169 68.7839 70.8799 69.0441 70.6373C69.3064 70.3942 69.6275 70.2218 70.0073 70.12C70.3892 70.0177 70.7492 70.0076 71.0874 70.0898C71.4255 70.1721 71.715 70.3276 71.956 70.5564C72.1969 70.7852 72.3623 71.0672 72.4522 71.4024C72.5164 71.6422 72.5357 71.8883 72.5101 72.1408C72.4861 72.3905 72.4055 72.6839 72.2684 73.0208C72.1328 73.355 71.932 73.7727 71.6661 74.2738L70.6216 76.2319L70.6353 76.2828L73.6651 75.471L73.8527 76.1712L69.7408 77.273ZM77.3934 75.3179C76.9733 75.4305 76.5795 75.4587 76.212 75.4026C75.8466 75.3458 75.5329 75.215 75.2711 75.01C75.0107 74.8023 74.8263 74.5299 74.7178 74.1929L75.5198 73.978C75.5931 74.1835 75.7139 74.3455 75.8821 74.4642C76.0498 74.5807 76.2476 74.6528 76.4756 74.6804C76.7036 74.708 76.9427 74.6883 77.1931 74.6212C77.4732 74.5461 77.7083 74.4308 77.8986 74.2752C78.0889 74.1196 78.2222 73.9384 78.2987 73.7314C78.3751 73.5244 78.3826 73.3064 78.3212 73.0772C78.257 72.8375 78.141 72.6423 77.9733 72.4916C77.805 72.3389 77.5924 72.2412 77.3354 72.1987C77.0784 72.1561 76.7844 72.1792 76.4534 72.2678L75.9314 72.4077L75.7438 71.7075L76.2658 71.5677C76.5246 71.4983 76.7391 71.3908 76.9093 71.2451C77.0816 71.0989 77.2002 70.9261 77.2651 70.7268C77.332 70.527 77.3348 70.3124 77.2734 70.0833C77.2143 69.8626 77.114 69.6837 76.9727 69.5465C76.8313 69.4092 76.6593 69.3189 76.4566 69.2754C76.256 69.2314 76.0359 69.2415 75.7961 69.3057C75.5712 69.366 75.3701 69.4642 75.1928 69.6004C75.0171 69.7339 74.8874 69.8948 74.8037 70.0833C74.7195 70.2696 74.7011 70.4724 74.7484 70.6916L73.9846 70.8963C73.9058 70.5513 73.9285 70.2245 74.0528 69.9161C74.1766 69.6055 74.375 69.3363 74.6483 69.1084C74.9236 68.88 75.2491 68.7155 75.6246 68.6148C76.0278 68.5068 76.3955 68.4958 76.7279 68.5819C77.0596 68.6658 77.3385 68.8196 77.5644 69.0434C77.7904 69.2671 77.9446 69.5328 78.027 69.8404C78.1254 70.2075 78.1127 70.5463 77.989 70.8569C77.8674 71.1669 77.6555 71.4159 77.3533 71.6037L77.367 71.6546C77.7968 71.6122 78.1652 71.7012 78.472 71.9214C78.7784 72.1395 78.987 72.4554 79.0978 72.8691C79.1928 73.2235 79.1815 73.5676 79.064 73.9015C78.9481 74.2328 78.7463 74.5234 78.4585 74.7733C78.1707 75.0233 77.8157 75.2048 77.3934 75.3179ZM83.0617 73.7991C82.7933 73.8665 82.5123 73.8872 82.2188 73.8613C81.9253 73.8353 81.6372 73.7362 81.3546 73.5641C81.0714 73.3898 80.8098 73.1222 80.5698 72.7613C80.3293 72.3982 80.1282 71.9154 79.9668 71.3128C79.8121 70.7357 79.7292 70.2098 79.7181 69.7353C79.7063 69.2586 79.7624 68.8399 79.8864 68.4792C80.0097 68.1164 80.1954 67.8165 80.4435 67.5795C80.6936 67.3419 81.0023 67.1739 81.3693 67.0756C81.7343 66.9778 82.0785 66.964 82.4021 67.0342C82.7272 67.1017 83.0146 67.2408 83.2643 67.4513C83.514 67.6618 83.7106 67.9287 83.854 68.2518L83.0774 68.4599C82.9268 68.1864 82.7217 67.981 82.462 67.8436C82.2024 67.7063 81.9007 67.6836 81.5569 67.7757C81.052 67.911 80.713 68.2372 80.54 68.7543C80.3691 69.2709 80.3889 69.9262 80.5994 70.7203L80.6503 70.7066C80.7208 70.4945 80.8207 70.3028 80.95 70.1317C81.0808 69.958 81.2365 69.8093 81.4172 69.6859C81.5979 69.5624 81.7996 69.4709 82.0224 69.4112C82.3959 69.3111 82.7625 69.3129 83.1223 69.4166C83.4815 69.5182 83.7983 69.7074 84.0726 69.9841C84.3463 70.2587 84.5394 70.6061 84.652 71.0262C84.76 71.4293 84.7687 71.8226 84.6782 72.2062C84.5871 72.5877 84.4046 72.9208 84.1307 73.2057C83.8584 73.4879 83.5021 73.6857 83.0617 73.7991ZM82.8741 73.0989C83.1415 73.0273 83.3633 72.8962 83.5397 72.7057C83.7182 72.5146 83.8388 72.2901 83.9016 72.0323C83.9665 71.7738 83.962 71.5067 83.8881 71.2308C83.8159 70.9614 83.6898 70.7325 83.5097 70.5442C83.3312 70.3533 83.1193 70.2202 82.874 70.1449C82.6308 70.0691 82.3755 70.067 82.1082 70.1386C81.9066 70.1926 81.7297 70.2833 81.5773 70.4105C81.4243 70.5356 81.3006 70.6848 81.206 70.8579C81.1135 71.0305 81.054 71.2159 81.0275 71.414C81.0004 71.61 81.013 71.8056 81.0653 72.0008C81.1347 72.2597 81.26 72.4854 81.4412 72.6779C81.6245 72.8698 81.8407 73.0063 82.0899 73.0874C82.3411 73.1679 82.6025 73.1717 82.8741 73.0989Z" fill="black"/>
<path d="M44.6395 157.12L46.916 156.51L50.2097 148.942L50.1918 148.947C50.4538 148.204 50.4983 147.366 50.2821 146.559C49.6866 144.337 47.3421 143.044 45.0298 143.663C42.7176 144.283 41.3337 146.575 41.9292 148.798C42.5008 150.931 44.6922 152.226 46.9175 151.784L44.6395 157.12ZM46.682 149.83C45.4452 150.161 44.2765 149.456 43.9547 148.255C43.6377 147.072 44.2973 145.877 45.5341 145.546C46.7709 145.214 47.9397 145.919 48.2566 147.102C48.5784 148.303 47.9188 149.498 46.682 149.83ZM53.8959 154.64L56.1724 154.03L59.4661 146.462L59.4482 146.466C59.7103 145.724 59.7547 144.886 59.5385 144.079C58.943 141.857 56.5985 140.564 54.2862 141.183C51.974 141.803 50.5901 144.095 51.1856 146.317C51.7572 148.45 53.9486 149.746 56.1739 149.303L53.8959 154.64ZM55.9384 147.349C54.7016 147.681 53.5329 146.976 53.2111 145.775C52.8941 144.592 53.5538 143.397 54.7906 143.065C56.0274 142.734 57.1961 143.439 57.5131 144.622C57.8349 145.823 57.1752 147.018 55.9384 147.349ZM63.1523 152.16L65.4288 151.55L68.7225 143.981L68.7046 143.986C68.9667 143.244 69.0111 142.406 68.795 141.599C68.1994 139.376 65.8549 138.083 63.5427 138.703C61.2304 139.323 59.8465 141.614 60.4421 143.837C61.0136 145.97 63.2051 147.266 65.4303 146.823L63.1523 152.16ZM65.1949 144.869C63.9581 145.2 62.7893 144.495 62.4675 143.294C62.1506 142.111 62.8102 140.916 64.047 140.585C65.2838 140.254 66.4525 140.959 66.7695 142.142C67.0913 143.343 66.4317 144.538 65.1949 144.869ZM80.7399 147.735C83.4465 147.01 84.1957 145.791 84.1957 145.791L83.7298 144.052C83.7119 144.057 82.5911 145.395 80.3146 146.005C78.2174 146.567 76.8679 145.545 76.2685 144.169L83.6714 142.185L83.4313 141.289C82.8309 139.048 80.6759 137.244 77.9872 137.964C75.1193 138.732 73.553 141.419 74.2974 144.197C75.013 146.868 77.4776 148.609 80.7399 147.735ZM75.9547 142.639C75.8701 141.893 76.1334 140.151 78.1589 139.609C80.1844 139.066 81.0683 140.5 81.3321 141.198L75.9547 142.639ZM87.7199 145.577L89.6558 145.058L87.5281 137.117L90.7008 136.267L90.2781 134.69L87.1054 135.54L86.313 132.582L82.0252 138.592L85.5922 137.636L87.7199 145.577ZM95.8602 133.156C93.6017 133.761 93.3585 135.363 93.3585 135.363L92.1866 130.989L90.3372 131.831L93.5984 144.002L95.5342 143.483L94.1366 138.267C93.6707 136.528 94.6901 135.314 96.0344 134.953C97.3071 134.612 98.3394 135.239 98.7381 136.726L100.213 142.229L102.148 141.711L100.621 136.011C99.9391 133.465 97.9394 132.599 95.8602 133.156Z" fill="black"/>
<path opacity="0.2" d="M53.0274 178.851L49.9346 167.309L50.6741 167.111L53.7668 178.653L53.0274 178.851ZM53.2069 170.269C53.0444 169.855 52.7574 169.578 52.3459 169.437C51.9336 169.293 51.463 169.292 50.9339 169.433C50.5552 169.535 50.2437 169.683 49.9993 169.877C49.7542 170.068 49.5828 170.288 49.4851 170.537C49.3895 170.781 49.3768 171.034 49.4469 171.296C49.5057 171.515 49.6075 171.691 49.7524 171.823C49.9003 171.954 50.0729 172.051 50.2702 172.114C50.4698 172.174 50.6769 172.213 50.8916 172.233C51.1055 172.25 51.3086 172.256 51.5011 172.253L52.4657 172.246C52.7796 172.239 53.1078 172.256 53.4504 172.296C53.7931 172.337 54.1236 172.422 54.4421 172.553C54.7606 172.683 55.0408 172.875 55.2829 173.129C55.5279 173.383 55.706 173.717 55.8172 174.132C55.9573 174.655 55.9465 175.155 55.7847 175.633C55.6259 176.111 55.3224 176.535 54.8743 176.907C54.4291 177.277 53.8458 177.559 53.1244 177.753C52.4331 177.938 51.8055 177.988 51.2417 177.904C50.678 177.82 50.1993 177.615 49.8059 177.289C49.4116 176.959 49.1249 176.521 48.9458 175.973L50.3436 175.598C50.46 175.925 50.6427 176.174 50.8917 176.345C51.1429 176.513 51.4317 176.611 51.7583 176.64C52.0871 176.665 52.4303 176.629 52.788 176.533C53.1818 176.428 53.5154 176.272 53.789 176.067C54.0648 175.858 54.2615 175.618 54.3793 175.348C54.4962 175.075 54.5144 174.788 54.4339 174.488C54.3606 174.214 54.2224 174.011 54.0194 173.879C53.8194 173.745 53.5718 173.657 53.2767 173.614C52.9846 173.57 52.6615 173.548 52.3075 173.55L51.1367 173.545C50.3433 173.541 49.6778 173.402 49.1403 173.127C48.6057 172.852 48.2523 172.392 48.0799 171.749C47.9374 171.217 47.9572 170.714 48.1395 170.24C48.3217 169.766 48.6299 169.353 49.0641 169.002C49.4974 168.647 50.0237 168.387 50.6429 168.221C51.2681 168.053 51.8491 168.015 52.3858 168.107C52.9256 168.197 53.3852 168.398 53.7649 168.709C54.1437 169.016 54.4056 169.416 54.5505 169.909L53.2069 170.269ZM58.602 166.088C59.0146 165.981 59.4405 165.947 59.8798 165.988C60.319 166.028 60.7441 166.172 61.1552 166.419C61.5692 166.666 61.9485 167.047 62.2931 167.564C62.6399 168.077 62.9276 168.753 63.1561 169.594C63.3727 170.403 63.4845 171.144 63.4913 171.819C63.4973 172.491 63.4065 173.084 63.2189 173.598C63.0343 174.111 62.7573 174.538 62.3878 174.879C62.0184 175.22 61.5647 175.462 61.0266 175.606C60.4766 175.754 59.9591 175.776 59.4743 175.674C58.9895 175.572 58.5622 175.366 58.1924 175.056C57.8218 174.743 57.5365 174.346 57.3367 173.865L58.7119 173.496C58.9084 173.869 59.1779 174.141 59.5205 174.314C59.8653 174.482 60.2586 174.507 60.7004 174.389C61.3768 174.208 61.8254 173.772 62.0462 173.081C62.2663 172.387 62.2357 171.51 61.9544 170.448L61.8822 170.467C61.7952 170.768 61.6594 171.042 61.4749 171.291C61.2934 171.54 61.072 171.754 60.8109 171.933C60.5497 172.113 60.2553 172.246 59.9276 172.334C59.3956 172.477 58.8766 172.476 58.3707 172.331C57.8648 172.186 57.4214 171.92 57.0405 171.533C56.6595 171.145 56.3906 170.658 56.2335 170.072C56.0772 169.489 56.0678 168.924 56.205 168.378C56.3453 167.832 56.6173 167.356 57.0211 166.952C57.4272 166.543 57.9541 166.255 58.602 166.088ZM58.9206 167.259C58.5689 167.354 58.2752 167.526 58.0393 167.776C57.8057 168.022 57.6472 168.314 57.5638 168.652C57.4796 168.987 57.4854 169.334 57.5813 169.691C57.6771 170.049 57.8423 170.353 58.0767 170.602C58.3133 170.848 58.5914 171.02 58.9108 171.118C59.2324 171.213 59.5706 171.212 59.9253 171.117C60.1898 171.046 60.4226 170.929 60.6236 170.766C60.8247 170.602 60.9867 170.407 61.1097 170.181C61.232 169.952 61.3101 169.709 61.3443 169.451C61.3785 169.194 61.3613 168.938 61.2929 168.682C61.2019 168.343 61.0361 168.049 60.7957 167.801C60.5583 167.552 60.276 167.376 59.949 167.274C59.6211 167.168 59.2783 167.164 58.9206 167.259ZM66.6738 163.926C67.0864 163.818 67.5123 163.785 67.9515 163.825C68.3908 163.865 68.8159 164.009 69.2269 164.256C69.641 164.503 70.0203 164.884 70.3649 165.401C70.7117 165.914 70.9993 166.591 71.2279 167.431C71.4445 168.24 71.5563 168.982 71.5631 169.656C71.5691 170.328 71.4783 170.921 71.2907 171.435C71.1061 171.949 70.8291 172.376 70.4596 172.716C70.0902 173.057 69.6365 173.299 69.0984 173.443C68.5484 173.591 68.0309 173.613 67.5461 173.511C67.0613 173.409 66.634 173.203 66.2642 172.893C65.8936 172.58 65.6083 172.183 65.4085 171.702L66.7837 171.333C66.9802 171.706 67.2497 171.978 67.5923 172.151C67.9371 172.319 68.3304 172.344 68.7722 172.226C69.4485 172.045 69.8971 171.609 70.118 170.918C70.3381 170.225 70.3075 169.347 70.0262 168.285L69.954 168.304C69.867 168.605 69.7312 168.879 69.5467 169.129C69.3652 169.377 69.1438 169.591 68.8827 169.77C68.6215 169.95 68.3271 170.084 67.9994 170.171C67.4674 170.314 66.9484 170.313 66.4425 170.168C65.9366 170.023 65.4932 169.757 65.1123 169.37C64.7313 168.982 64.4623 168.495 64.3053 167.909C64.149 167.326 64.1395 166.761 64.2768 166.216C64.4171 165.669 64.6891 165.193 65.0929 164.789C65.499 164.38 66.0259 164.093 66.6738 163.926ZM66.9924 165.097C66.6407 165.191 66.347 165.363 66.1111 165.613C65.8775 165.859 65.719 166.151 65.6356 166.489C65.5514 166.825 65.5572 167.171 65.6531 167.529C65.7489 167.886 65.9141 168.19 66.1485 168.44C66.3851 168.686 66.6631 168.857 66.9826 168.956C67.3042 169.05 67.6424 169.049 67.9971 168.954C68.2616 168.883 68.4944 168.766 68.6954 168.603C68.8965 168.439 69.0585 168.245 69.1815 168.018C69.3037 167.789 69.3819 167.546 69.4161 167.289C69.4503 167.031 69.4331 166.775 69.3647 166.52C69.2737 166.18 69.1079 165.886 68.8675 165.638C68.6301 165.389 68.3478 165.213 68.0207 165.111C67.6929 165.006 67.3501 165.001 66.9924 165.097ZM74.7456 161.763C75.1582 161.655 75.5841 161.622 76.0233 161.662C76.4626 161.702 76.8877 161.846 77.2987 162.093C77.7128 162.34 78.0921 162.722 78.4367 163.238C78.7835 163.751 79.0711 164.428 79.2997 165.269C79.5163 166.077 79.628 166.819 79.6349 167.493C79.6409 168.165 79.5501 168.758 79.3625 169.272C79.1779 169.786 78.9009 170.213 78.5314 170.553C78.162 170.894 77.7083 171.136 77.1702 171.281C76.6202 171.428 76.1027 171.451 75.6179 171.349C75.1331 171.246 74.7058 171.04 74.336 170.73C73.9653 170.417 73.6801 170.02 73.4803 169.539L74.8555 169.17C75.052 169.543 75.3215 169.815 75.6641 169.988C76.0088 170.156 76.4022 170.182 76.844 170.063C77.5203 169.882 77.9689 169.446 78.1898 168.755C78.4099 168.062 78.3793 167.184 78.098 166.122L78.0258 166.141C77.9388 166.442 77.803 166.717 77.6185 166.966C77.437 167.214 77.2156 167.428 76.9544 167.608C76.6933 167.787 76.3989 167.921 76.0712 168.009C75.5392 168.151 75.0202 168.15 74.5143 168.005C74.0084 167.861 73.565 167.594 73.184 167.207C72.8031 166.819 72.5341 166.332 72.3771 165.746C72.2208 165.163 72.2113 164.599 72.3486 164.053C72.4889 163.506 72.7609 163.031 73.1647 162.626C73.5708 162.218 74.0977 161.93 74.7456 161.763ZM75.0642 162.934C74.7125 163.028 74.4187 163.2 74.1829 163.45C73.9493 163.696 73.7908 163.989 73.7074 164.327C73.6232 164.662 73.629 165.008 73.7249 165.366C73.8207 165.723 73.9858 166.027 74.2203 166.277C74.4569 166.523 74.7349 166.695 75.0544 166.793C75.376 166.887 75.7142 166.887 76.0689 166.791C76.3334 166.721 76.5662 166.603 76.7672 166.44C76.9683 166.277 77.1303 166.082 77.2533 165.856C77.3755 165.626 77.4537 165.383 77.4879 165.126C77.5221 164.869 77.5049 164.612 77.4365 164.357C77.3454 164.017 77.1797 163.723 76.9393 163.475C76.7018 163.226 76.4196 163.051 76.0925 162.948C75.7647 162.843 75.4219 162.838 75.0642 162.934ZM82.8174 159.6C83.23 159.493 83.6559 159.459 84.0951 159.499C84.5344 159.539 84.9595 159.683 85.3705 159.931C85.7846 160.177 86.1639 160.559 86.5085 161.075C86.8553 161.588 87.1429 162.265 87.3714 163.106C87.5881 163.914 87.6998 164.656 87.7067 165.331C87.7127 166.002 87.6219 166.595 87.4343 167.11C87.2497 167.623 86.9726 168.05 86.6032 168.391C86.2338 168.731 85.78 168.974 85.242 169.118C84.6919 169.265 84.1745 169.288 83.6897 169.186C83.2049 169.084 82.7775 168.878 82.4077 168.568C82.0371 168.254 81.7519 167.857 81.5521 167.376L82.9273 167.008C83.1237 167.38 83.3933 167.653 83.7359 167.825C84.0806 167.994 84.474 168.019 84.9158 167.9C85.5921 167.719 86.0407 167.283 86.2616 166.593C86.4817 165.899 86.451 165.021 86.1697 163.959L86.0976 163.979C86.0106 164.279 85.8748 164.554 85.6903 164.803C85.5088 165.051 85.2874 165.265 85.0262 165.445C84.7651 165.624 84.4706 165.758 84.143 165.846C83.611 165.988 83.092 165.987 82.5861 165.843C82.0802 165.698 81.6368 165.432 81.2558 165.044C80.8749 164.656 80.6059 164.17 80.4489 163.583C80.2926 163 80.2831 162.436 80.4204 161.89C80.5606 161.343 80.8327 160.868 81.2365 160.463C81.6425 160.055 82.1695 159.767 82.8174 159.6ZM83.136 160.771C82.7843 160.865 82.4905 161.037 82.2547 161.287C82.0211 161.534 81.8626 161.826 81.7792 162.164C81.695 162.499 81.7008 162.845 81.7967 163.203C81.8925 163.561 82.0576 163.864 82.2921 164.114C82.5287 164.36 82.8067 164.532 83.1262 164.63C83.4478 164.724 83.786 164.724 84.1407 164.629C84.4052 164.558 84.638 164.441 84.839 164.277C85.0401 164.114 85.2021 163.919 85.3251 163.693C85.4473 163.463 85.5255 163.22 85.5597 162.963C85.5938 162.706 85.5767 162.449 85.5082 162.194C85.4172 161.854 85.2515 161.56 85.0111 161.312C84.7736 161.063 84.4914 160.888 84.1643 160.785C83.8365 160.68 83.4937 160.675 83.136 160.771Z" fill="black"/>
<circle cx="226.247" cy="63.6425" r="11.3082" transform="rotate(-15 226.247 63.6425)" stroke="black" stroke-width="0.579906"/>
<path d="M223.017 67.8909L222.417 65.6042L224.652 64.9922" stroke="#171717" stroke-width="0.579906" stroke-linecap="round" stroke-linejoin="round"/>
<path d="M229.613 59.5488L230.212 61.8355L227.977 62.4475" stroke="#171717" stroke-width="0.579906" stroke-linecap="round" stroke-linejoin="round"/>
<path d="M222.853 63.4428C222.898 62.8448 223.091 62.2686 223.414 61.7677C223.736 61.2669 224.177 60.8579 224.696 60.5787C225.215 60.2996 225.794 60.1595 226.381 60.1715C226.967 60.1836 227.541 60.3473 228.048 60.6474L230.212 61.8357M222.417 65.6043L224.581 66.7926C225.089 67.0928 225.663 67.2565 226.249 67.2685C226.835 67.2806 227.415 67.1405 227.933 66.8613C228.452 66.5822 228.893 66.1732 229.216 65.6723C229.538 65.1715 229.731 64.5952 229.777 63.9973" stroke="#171717" stroke-width="0.579906" stroke-linecap="round" stroke-linejoin="round"/>
<path d="M216.21 38.2125C216.188 38.2185 216.155 38.2274 216.13 38.2226C215.956 38.2349 215.819 38.146 215.762 37.9901C215.681 37.7832 215.623 37.5704 215.573 37.3437C215.068 35.0343 216.392 32.5891 218.666 31.6371L218.395 30.396C218.355 30.2126 218.428 30.0101 218.601 29.884C218.762 29.7608 218.983 29.7474 219.144 29.8412L222.862 31.9979C222.997 32.0761 223.081 32.1906 223.114 32.3417C223.147 32.4928 223.119 32.6372 223.032 32.7749L220.605 36.578C220.5 36.7432 220.298 36.843 220.104 36.8151C219.91 36.7872 219.752 36.6581 219.71 36.4639L219.408 35.0825C218.049 35.5381 216.965 36.6053 216.492 37.9428C216.452 38.0794 216.344 38.1768 216.21 38.2126L216.21 38.2125ZM218.991 30.4306L219.234 31.5421C219.286 31.7795 219.141 32.0352 218.904 32.1331C216.863 32.9656 215.67 35.1474 216.118 37.1978L216.146 37.3272C216.761 35.9973 217.924 34.9661 219.343 34.5173C219.474 34.4708 219.608 34.4919 219.727 34.5515C219.846 34.611 219.93 34.7256 219.958 34.8551L220.239 36.1393L222.549 32.5044L222.547 32.4936L218.991 30.4306Z" fill="#212121"/>
<ellipse cx="218.532" cy="33.8119" rx="11.5981" ry="11.5981" transform="rotate(-15 218.532 33.8119)" stroke="black" stroke-width="0.579906"/>
<defs>
<linearGradient id="paint0_linear_1_543" x1="-19.2714" y1="183.356" x2="190.51" y2="304.071" gradientUnits="userSpaceOnUse">
<stop stop-color="#F1FF84"/>
<stop offset="1" stop-color="#E1F442"/>
</linearGradient>
</defs>
</svg>
