<svg width="586" height="345" viewBox="0 0 586 345" fill="none" xmlns="http://www.w3.org/2000/svg">
<rect x="22.8145" y="261.01" width="13.8225" height="13.8225" transform="rotate(-108.494 22.8145 261.01)" fill="#FE9426"/>
<rect x="183.749" y="171.163" width="13.8225" height="13.8225" transform="rotate(-122.918 183.749 171.163)" fill="white"/>
<rect x="110.58" y="256.44" width="13.8225" height="13.8225" transform="rotate(-75.68 110.58 256.44)" fill="white"/>
<rect x="261.373" y="161.531" width="13.8225" height="13.8225" transform="rotate(-90.1036 261.373 161.531)" fill="#0F59FA"/>
<rect y="80.2024" width="13.8225" height="13.8225" transform="rotate(-75.68 0 80.2024)" fill="#FE9426"/>
<rect x="66.833" y="38.697" width="13.8225" height="13.8225" transform="rotate(-90.1036 66.833 38.697)" fill="#0F59FA"/>
<rect x="171.407" y="327.819" width="13.8225" height="13.8225" transform="rotate(-108.494 171.407 327.819)" fill="#0F59FA"/>
<rect x="332.893" y="203.811" width="13.8225" height="13.8225" transform="rotate(-67.1685 332.893 203.811)" fill="#FE9426"/>
<rect x="279.355" y="324.363" width="13.8225" height="13.8225" transform="rotate(-122.918 279.355 324.363)" fill="white"/>
<rect x="404.223" y="342.293" width="13.8225" height="13.8225" transform="rotate(-81.592 404.223 342.293)" fill="#FE9426"/>
<rect x="522.953" y="13.3931" width="13.8225" height="13.8225" transform="rotate(-75.68 522.953 13.3931)" fill="#FE9426"/>
<rect x="423.598" y="241.268" width="13.8226" height="13.8226" transform="rotate(-34.3541 423.598 241.268)" fill="#0F59FA"/>
<rect x="395.119" y="68.6458" width="13.8225" height="13.8225" transform="rotate(-90.1036 395.119 68.6458)" fill="white"/>
<rect x="536.105" y="255.685" width="13.8225" height="13.8225" transform="rotate(-48.7776 536.105 255.685)" fill="white"/>
<rect x="566.724" y="332.534" width="13.8226" height="13.8226" transform="rotate(-34.3541 566.724 332.534)" fill="#0F59FA"/>
<rect x="277.485" y="51.6196" width="13.8225" height="13.8225" transform="rotate(-90.1036 277.485 51.6196)" fill="white"/>
<rect x="530.991" y="84.2635" width="13.8225" height="13.8225" transform="rotate(-48.7776 530.991 84.2635)" fill="#FE9426"/>
</svg>
