<svg width="41" height="43" viewBox="0 0 41 43" fill="none" xmlns="http://www.w3.org/2000/svg">
<rect x="15.7187" y="1.26143" width="7.39792" height="10.1304" rx="1.19917" transform="rotate(25 15.7187 1.26143)" fill="#FE9426" stroke="#131313" stroke-width="0.799449"/>
<rect x="29.5499" y="4.11069" width="7.39792" height="10.1304" rx="1.19917" transform="rotate(66.0527 29.5499 4.11069)" fill="#FE9426" stroke="#131313" stroke-width="0.799449"/>
<rect x="38.9552" y="13.0565" width="7.39792" height="10.1304" rx="1.19917" transform="rotate(105.511 38.9552 13.0565)" fill="#FE9426" stroke="#131313" stroke-width="0.799449"/>
<rect x="40.3414" y="26.0454" width="7.39792" height="10.1304" rx="1.19917" transform="rotate(145.351 40.3414 26.0454)" fill="#FE9426" stroke="#131313" stroke-width="0.799449"/>
<rect x="33.3085" y="36.872" width="7.39792" height="10.1304" rx="1.19917" transform="rotate(-174.749 33.3085 36.872)" fill="#FE9426" stroke="#131313" stroke-width="0.799449"/>
<rect x="19.9351" y="41.7359" width="7.39792" height="10.1304" rx="1.19917" transform="rotate(-137.129 19.9351 41.7359)" fill="#FE9426" stroke="#131313" stroke-width="0.799449"/>
<rect x="6.47928" y="35.5375" width="7.39792" height="10.1304" rx="1.19917" transform="rotate(-94.7798 6.47928 35.5375)" fill="#FE9426" stroke="#131313" stroke-width="0.799449"/>
<rect x="1.11893" y="23.8596" width="7.39792" height="10.1304" rx="1.19917" transform="rotate(-56.2267 1.11893 23.8596)" fill="#FE9426" stroke="#131313" stroke-width="0.799449"/>
<rect x="4.67939" y="9.81265" width="7.39792" height="10.1304" rx="1.19917" transform="rotate(-10.2635 4.67939 9.81265)" fill="#FE9426" stroke="#131313" stroke-width="0.799449"/>
</svg>
