<svg width="50" height="43" viewBox="0 0 50 43" fill="none" xmlns="http://www.w3.org/2000/svg">
<path d="M41.4237 13.9839C38.5402 7.95614 32.3532 3.78876 25.1861 3.78876C18.019 3.78876 11.8321 7.95614 8.94853 13.9839H5.59263C8.66621 6.22336 16.2802 0.730225 25.1861 0.730225C34.0921 0.730225 41.706 6.22336 44.7796 13.9839H41.4237Z" fill="#E6FC35"/>
<path d="M2.6355 29.7863C1.56487 27.2803 0.972656 24.5239 0.972656 21.6302H4.05264C4.05264 24.569 4.76815 27.3418 6.03562 29.7863H2.6355Z" fill="#E6FC35"/>
<path d="M41.4029 29.7863C42.4735 27.2803 43.0657 24.5239 43.0657 21.6302H39.9858C39.9858 24.569 39.2702 27.3418 38.0028 29.7863H41.4029Z" fill="#E6FC35"/>
<path d="M7.64595 21.6302C7.64595 18.9314 8.16107 16.3521 9.099 13.9839H12.4549C11.3463 16.3013 10.7259 18.8938 10.7259 21.6302H7.64595Z" fill="#E6FC35"/>
<path d="M49.739 21.6302C49.739 18.9314 49.2239 16.3521 48.286 13.9839H44.9301C46.0387 16.3013 46.659 18.8938 46.659 21.6302H49.739Z" fill="#E6FC35"/>
<path d="M6.10596 29.7863C9.30602 37.2764 16.78 42.53 25.4896 42.53C34.1992 42.53 41.6731 37.2764 44.8732 29.7863H41.473C38.4907 35.5378 32.4528 39.4714 25.4896 39.4714C18.5264 39.4714 12.4884 35.5378 9.50609 29.7863H6.10596Z" fill="#E6FC35"/>
</svg>
